<svg width="20" height="20" viewBox="0 0 20 20" fill="none" xmlns="http://www.w3.org/2000/svg">
<g id="Icon">
<path id="Icon_2" fill-rule="evenodd" clip-rule="evenodd" d="M10 1.66797C5.40002 1.66797 1.66669 5.4013 1.66669 10.0013C1.66669 14.6013 5.40002 18.3346 10 18.3346C14.6 18.3346 18.3334 14.6013 18.3334 10.0013C18.3334 5.4013 14.6 1.66797 10 1.66797ZM7.74169 13.5763L4.75002 10.5846C4.42502 10.2596 4.42502 9.73464 4.75002 9.40964C5.07502 9.08464 5.60002 9.08464 5.92502 9.40964L8.33335 11.8096L14.0667 6.0763C14.3917 5.7513 14.9167 5.7513 15.2417 6.0763C15.5667 6.4013 15.5667 6.9263 15.2417 7.2513L8.91669 13.5763C8.60002 13.9013 8.06669 13.9013 7.74169 13.5763Z" fill="white"/>
</g>
</svg>
