<svg width="48" height="48" viewBox="0 0 48 48" fill="none" xmlns="http://www.w3.org/2000/svg">
<rect width="48" height="48" rx="24" fill="black" fill-opacity="0.5"/>
<path fill-rule="evenodd" clip-rule="evenodd" d="M32 17H28.83L27.59 15.65C27.22 15.24 26.68 15 26.12 15H21.88C21.32 15 20.78 15.24 20.4 15.65L19.17 17H16C14.9 17 14 17.9 14 19V31C14 32.1 14.9 33 16 33H32C33.1 33 34 32.1 34 31V19C34 17.9 33.1 17 32 17ZM24 30C21.24 30 19 27.76 19 25C19 22.24 21.24 20 24 20C26.76 20 29 22.24 29 25C29 27.76 26.76 30 24 30ZM24 21L22.75 23.75L20 25L22.75 26.25L24 29L25.25 26.25L28 25L25.25 23.75L24 21Z" fill="white"/>
</svg>
