<svg width="30" height="30" viewBox="0 0 30 30" fill="none" xmlns="http://www.w3.org/2000/svg">
<g filter="url(#filter0_d_1083_39912)">
<rect x="1" width="28" height="28" rx="14" fill="white"/>
<path d="M18.06 12H17V8.66667C17 8.3 16.7 8 16.3333 8H13.6667C13.3 8 13 8.3 13 8.66667V12H11.94C11.3467 12 11.0467 12.72 11.4667 13.14L14.5267 16.2C14.7867 16.46 15.2067 16.46 15.4667 16.2L18.5267 13.14C18.9467 12.72 18.6533 12 18.06 12ZM10.3333 18.6667C10.3333 19.0333 10.6333 19.3333 11 19.3333H19C19.3667 19.3333 19.6667 19.0333 19.6667 18.6667C19.6667 18.3 19.3667 18 19 18H11C10.6333 18 10.3333 18.3 10.3333 18.6667Z" fill="#969696"/>
<rect x="1.5" y="0.5" width="27" height="27" rx="13.5" stroke="#E8E8E8"/>
</g>
<defs>
<filter id="filter0_d_1083_39912" x="0" y="0" width="30" height="30" filterUnits="userSpaceOnUse" color-interpolation-filters="sRGB">
<feFlood flood-opacity="0" result="BackgroundImageFix"/>
<feColorMatrix in="SourceAlpha" type="matrix" values="0 0 0 0 0 0 0 0 0 0 0 0 0 0 0 0 0 0 127 0" result="hardAlpha"/>
<feOffset dy="1"/>
<feGaussianBlur stdDeviation="0.5"/>
<feColorMatrix type="matrix" values="0 0 0 0 0 0 0 0 0 0 0 0 0 0 0 0 0 0 0.06 0"/>
<feBlend mode="normal" in2="BackgroundImageFix" result="effect1_dropShadow_1083_39912"/>
<feBlend mode="normal" in="SourceGraphic" in2="effect1_dropShadow_1083_39912" result="shape"/>
</filter>
</defs>
</svg>
