<svg width="20" height="20" viewBox="0 0 20 20" fill="none" xmlns="http://www.w3.org/2000/svg">
<path d="M8.33317 13.3334H11.6665C12.1248 13.3334 12.4998 12.9584 12.4998 12.5V8.33335H13.8248C14.5665 8.33335 14.9415 7.43335 14.4165 6.90835L10.5915 3.08335C10.2665 2.75835 9.7415 2.75835 9.4165 3.08335L5.5915 6.90835C5.0665 7.43335 5.43317 8.33335 6.17484 8.33335H7.49984V12.5C7.49984 12.9584 7.87484 13.3334 8.33317 13.3334ZM4.99984 15H14.9998C15.4582 15 15.8332 15.375 15.8332 15.8334C15.8332 16.2917 15.4582 16.6667 14.9998 16.6667H4.99984C4.5415 16.6667 4.1665 16.2917 4.1665 15.8334C4.1665 15.375 4.5415 15 4.99984 15Z" fill="#969696"/>
</svg>
