<svg width="42" height="42" viewBox="0 0 42 42" fill="none" xmlns="http://www.w3.org/2000/svg">
<g filter="url(#filter0_d_2429_2431)">
<rect x="1" width="40" height="40" rx="8" fill="white"/>
<path fill-rule="evenodd" clip-rule="evenodd" d="M15.9999 18.333C15.0833 18.333 14.3333 19.083 14.3333 19.9997C14.3333 20.9163 15.0833 21.6663 15.9999 21.6663C16.9166 21.6663 17.6666 20.9163 17.6666 19.9997C17.6666 19.083 16.9166 18.333 15.9999 18.333ZM25.9999 18.333C25.0833 18.333 24.3333 19.083 24.3333 19.9997C24.3333 20.9163 25.0833 21.6663 25.9999 21.6663C26.9166 21.6663 27.6666 20.9163 27.6666 19.9997C27.6666 19.083 26.9166 18.333 25.9999 18.333ZM20.9999 18.333C20.0833 18.333 19.3333 19.083 19.3333 19.9997C19.3333 20.9163 20.0833 21.6663 20.9999 21.6663C21.9166 21.6663 22.6666 20.9163 22.6666 19.9997C22.6666 19.083 21.9166 18.333 20.9999 18.333Z" fill="#969696"/>
<rect x="1.5" y="0.5" width="39" height="39" rx="7.5" stroke="#E8E8E8"/>
</g>
<defs>
<filter id="filter0_d_2429_2431" x="0" y="0" width="42" height="42" filterUnits="userSpaceOnUse" color-interpolation-filters="sRGB">
<feFlood flood-opacity="0" result="BackgroundImageFix"/>
<feColorMatrix in="SourceAlpha" type="matrix" values="0 0 0 0 0 0 0 0 0 0 0 0 0 0 0 0 0 0 127 0" result="hardAlpha"/>
<feOffset dy="1"/>
<feGaussianBlur stdDeviation="0.5"/>
<feColorMatrix type="matrix" values="0 0 0 0 0 0 0 0 0 0 0 0 0 0 0 0 0 0 0.06 0"/>
<feBlend mode="normal" in2="BackgroundImageFix" result="effect1_dropShadow_2429_2431"/>
<feBlend mode="normal" in="SourceGraphic" in2="effect1_dropShadow_2429_2431" result="shape"/>
</filter>
</defs>
</svg>
