<svg width="42" height="42" viewBox="0 0 42 42" fill="none" xmlns="http://www.w3.org/2000/svg">
<g filter="url(#filter0_d_1757_28422)">
<rect x="1" width="40" height="40" rx="8" fill="#F7F7F7"/>
<path fill-rule="evenodd" clip-rule="evenodd" d="M15.9997 18.333C15.083 18.333 14.333 19.083 14.333 19.9997C14.333 20.9163 15.083 21.6663 15.9997 21.6663C16.9163 21.6663 17.6663 20.9163 17.6663 19.9997C17.6663 19.083 16.9163 18.333 15.9997 18.333ZM25.9997 18.333C25.083 18.333 24.333 19.083 24.333 19.9997C24.333 20.9163 25.083 21.6663 25.9997 21.6663C26.9163 21.6663 27.6663 20.9163 27.6663 19.9997C27.6663 19.083 26.9163 18.333 25.9997 18.333ZM20.9997 18.333C20.083 18.333 19.333 19.083 19.333 19.9997C19.333 20.9163 20.083 21.6663 20.9997 21.6663C21.9163 21.6663 22.6663 20.9163 22.6663 19.9997C22.6663 19.083 21.9163 18.333 20.9997 18.333Z" fill="#969696"/>
<rect x="1.5" y="0.5" width="39" height="39" rx="7.5" stroke="#E8E8E8"/>
</g>
<defs>
<filter id="filter0_d_1757_28422" x="0" y="0" width="42" height="42" filterUnits="userSpaceOnUse" color-interpolation-filters="sRGB">
<feFlood flood-opacity="0" result="BackgroundImageFix"/>
<feColorMatrix in="SourceAlpha" type="matrix" values="0 0 0 0 0 0 0 0 0 0 0 0 0 0 0 0 0 0 127 0" result="hardAlpha"/>
<feOffset dy="1"/>
<feGaussianBlur stdDeviation="0.5"/>
<feColorMatrix type="matrix" values="0 0 0 0 0 0 0 0 0 0 0 0 0 0 0 0 0 0 0.06 0"/>
<feBlend mode="normal" in2="BackgroundImageFix" result="effect1_dropShadow_1757_28422"/>
<feBlend mode="normal" in="SourceGraphic" in2="effect1_dropShadow_1757_28422" result="shape"/>
</filter>
</defs>
</svg>
