<svg width="20" height="20" viewBox="0 0 20 20" fill="none" xmlns="http://www.w3.org/2000/svg">
<g id="Icon">
<path id="Icon_2" fill-rule="evenodd" clip-rule="evenodd" d="M10 1.66797C5.39169 1.66797 1.66669 5.39297 1.66669 10.0013C1.66669 14.6096 5.39169 18.3346 10 18.3346C14.6084 18.3346 18.3334 14.6096 18.3334 10.0013C18.3334 5.39297 14.6084 1.66797 10 1.66797ZM13.5834 13.5846C13.2584 13.9096 12.7334 13.9096 12.4084 13.5846L10 11.1763L7.59169 13.5846C7.26669 13.9096 6.74169 13.9096 6.41669 13.5846C6.09169 13.2596 6.09169 12.7346 6.41669 12.4096L8.82502 10.0013L6.41669 7.59297C6.09169 7.26797 6.09169 6.74297 6.41669 6.41797C6.74169 6.09297 7.26669 6.09297 7.59169 6.41797L10 8.8263L12.4084 6.41797C12.7334 6.09297 13.2584 6.09297 13.5834 6.41797C13.9084 6.74297 13.9084 7.26797 13.5834 7.59297L11.175 10.0013L13.5834 12.4096C13.9 12.7263 13.9 13.2596 13.5834 13.5846Z" fill="white"/>
</g>
</svg>
