<svg width="20" height="20" viewBox="0 0 20 20" fill="none" xmlns="http://www.w3.org/2000/svg">
<path fill-rule="evenodd" clip-rule="evenodd" d="M9.6002 3.33344V1.84177C9.6002 1.46677 9.1682 1.28344 8.9202 1.55011L6.6802 3.87511C6.5202 4.04177 6.5202 4.30011 6.6802 4.46677L8.9122 6.79177C9.1682 7.05011 9.6002 6.86677 9.6002 6.49177V5.00011C12.2482 5.00011 14.4002 7.24177 14.4002 10.0001C14.4002 10.6584 14.2802 11.3001 14.0482 11.8751C13.9282 12.1751 14.0162 12.5168 14.2322 12.7418C14.6402 13.1668 15.3282 13.0168 15.5442 12.4584C15.8402 11.7001 16.0002 10.8668 16.0002 10.0001C16.0002 6.31677 13.1362 3.33344 9.6002 3.33344ZM9.60019 15.0001C6.9522 15.0001 4.8002 12.7584 4.8002 10.0001C4.8002 9.34177 4.9202 8.70011 5.1522 8.12511C5.2722 7.82511 5.1842 7.48344 4.9682 7.25844C4.5602 6.83344 3.8722 6.98344 3.6562 7.54177C3.3602 8.30011 3.2002 9.13344 3.2002 10.0001C3.2002 13.6834 6.0642 16.6668 9.60019 16.6668V18.1584C9.60019 18.5334 10.0322 18.7168 10.2802 18.4501L12.5122 16.1251C12.6722 15.9584 12.6722 15.7001 12.5122 15.5334L10.2802 13.2084C10.0322 12.9501 9.60019 13.1334 9.60019 13.5084V15.0001Z" fill="#969696"/>
</svg>
